<svg width="115" height="116" viewBox="0 0 115 116" fill="none" xmlns="http://www.w3.org/2000/svg">
<g clip-path="url(#clip0_1085_10557)">
<mask id="path-1-inside-1_1085_10557" fill="white">
<path d="M44.8888 101.897C43.1428 108.07 36.6407 111.758 30.9452 108.806C25.0973 105.774 19.7895 101.744 15.2737 96.8693C8.11259 89.1393 3.22041 79.5852 1.1345 69.2565C-0.951401 58.9277 -0.150325 48.2238 3.44974 38.3206C7.04981 28.4174 13.3096 19.6979 21.5415 13.1199C29.7734 6.54188 39.659 2.35987 50.1125 1.03318C60.5659 -0.29351 71.1828 1.28645 80.7969 5.59953C90.4111 9.9126 98.6506 16.7919 104.61 25.4819C108.369 30.9617 111.129 37.0279 112.795 43.4004C114.419 49.607 109.387 55.1352 102.981 55.4764C96.5743 55.8176 91.2803 50.7458 88.8183 44.8217C87.9173 42.6537 86.7909 40.5751 85.4512 38.6217C81.9065 33.4532 77.0059 29.3616 71.2877 26.7963C65.5695 24.231 59.2549 23.2913 53.0375 24.0804C46.8201 24.8694 40.9404 27.3568 36.0443 31.2692C31.1482 35.1816 27.4251 40.3677 25.2839 46.2578C23.1427 52.148 22.6662 58.5143 23.9068 64.6576C25.1475 70.8008 28.0572 76.4833 32.3164 81.0809C33.9261 82.8185 35.705 84.3757 37.6208 85.7327C42.8559 89.4409 46.6348 95.7234 44.8888 101.897Z"/>
</mask>
<path d="M44.8888 101.897C43.1428 108.07 36.6407 111.758 30.9452 108.806C25.0973 105.774 19.7895 101.744 15.2737 96.8693C8.11259 89.1393 3.22041 79.5852 1.1345 69.2565C-0.951401 58.9277 -0.150325 48.2238 3.44974 38.3206C7.04981 28.4174 13.3096 19.6979 21.5415 13.1199C29.7734 6.54188 39.659 2.35987 50.1125 1.03318C60.5659 -0.29351 71.1828 1.28645 80.7969 5.59953C90.4111 9.9126 98.6506 16.7919 104.61 25.4819C108.369 30.9617 111.129 37.0279 112.795 43.4004C114.419 49.607 109.387 55.1352 102.981 55.4764C96.5743 55.8176 91.2803 50.7458 88.8183 44.8217C87.9173 42.6537 86.7909 40.5751 85.4512 38.6217C81.9065 33.4532 77.0059 29.3616 71.2877 26.7963C65.5695 24.231 59.2549 23.2913 53.0375 24.0804C46.8201 24.8694 40.9404 27.3568 36.0443 31.2692C31.1482 35.1816 27.4251 40.3677 25.2839 46.2578C23.1427 52.148 22.6662 58.5143 23.9068 64.6576C25.1475 70.8008 28.0572 76.4833 32.3164 81.0809C33.9261 82.8185 35.705 84.3757 37.6208 85.7327C42.8559 89.4409 46.6348 95.7234 44.8888 101.897Z" fill="#0269D0" stroke="white" stroke-width="0.573306" mask="url(#path-1-inside-1_1085_10557)"/>
<path d="M76.5797 86.9638C76.0116 86.9638 75.503 86.8573 75.0542 86.6442C74.6053 86.4283 74.2488 86.1328 73.9846 85.7578C73.7232 85.3828 73.584 84.9539 73.567 84.4709H75.101C75.1295 84.8289 75.2843 85.1215 75.5655 85.3488C75.8468 85.5732 76.1849 85.6854 76.5797 85.6854C76.8894 85.6854 77.165 85.6144 77.4064 85.4723C77.6479 85.3303 77.8383 85.1328 77.9775 84.88C78.1167 84.6272 78.1849 84.3388 78.182 84.0149C78.1849 83.6854 78.1153 83.3928 77.9732 83.1371C77.8312 82.8814 77.6366 82.6811 77.3894 82.5363C77.1422 82.3885 76.8581 82.3147 76.5371 82.3147C76.2758 82.3118 76.0187 82.3601 75.7658 82.4595C75.513 82.559 75.3127 82.6897 75.165 82.8516L73.7374 82.6172L74.1934 78.1172H79.2559V79.4382H75.5016L75.2502 81.7522H75.3013C75.4633 81.5618 75.692 81.4041 75.9874 81.2791C76.2829 81.1513 76.6067 81.0874 76.959 81.0874C77.4874 81.0874 77.959 81.2124 78.3738 81.4624C78.7885 81.7095 79.1153 82.0505 79.3539 82.4851C79.5925 82.9198 79.7118 83.4169 79.7118 83.9766C79.7118 84.5533 79.5783 85.0675 79.3113 85.5192C79.0471 85.9681 78.6792 86.3218 78.2076 86.5803C77.7388 86.836 77.1962 86.9638 76.5797 86.9638ZM85.8056 85.2081V84.7479C85.8056 84.4098 85.8766 84.0988 86.0187 83.8147C86.1635 83.5306 86.3738 83.3019 86.6493 83.1286C86.9249 82.9553 87.2587 82.8686 87.6508 82.8686C88.0542 82.8686 88.3922 82.9553 88.665 83.1286C88.9377 83.299 89.1437 83.5263 89.2829 83.8104C89.4249 84.0945 89.4959 84.407 89.4959 84.7479V85.2081C89.4959 85.5462 89.4249 85.8573 89.2829 86.1414C89.1408 86.4255 88.932 86.6541 88.6564 86.8274C88.3837 87.0007 88.0485 87.0874 87.6508 87.0874C87.253 87.0874 86.9164 87.0007 86.6408 86.8274C86.3653 86.6541 86.1564 86.4255 86.0144 86.1414C85.8752 85.8573 85.8056 85.5462 85.8056 85.2081ZM86.9178 84.7479V85.2081C86.9178 85.4326 86.9718 85.6385 87.0797 85.826C87.1877 86.0135 87.378 86.1073 87.6508 86.1073C87.9263 86.1073 88.1153 86.0149 88.2175 85.8303C88.3226 85.6428 88.3752 85.4354 88.3752 85.2081V84.7479C88.3752 84.5206 88.3255 84.3132 88.226 84.1257C88.1266 83.9354 87.9349 83.8402 87.6508 83.8402C87.3837 83.8402 87.1948 83.9354 87.084 84.1257C86.9732 84.3132 86.9178 84.5206 86.9178 84.7479ZM81.3695 80.2138V79.7536C81.3695 79.4127 81.442 79.1002 81.5868 78.8161C81.7317 78.532 81.942 78.3047 82.2175 78.1343C82.4931 77.961 82.8269 77.8743 83.2189 77.8743C83.6195 77.8743 83.9562 77.961 84.2289 78.1343C84.5045 78.3047 84.7118 78.532 84.851 78.8161C84.9903 79.1002 85.0599 79.4127 85.0599 79.7536V80.2138C85.0599 80.5547 84.9888 80.8672 84.8468 81.1513C84.7076 81.4326 84.5002 81.6584 84.2246 81.8289C83.9491 81.9993 83.6138 82.0845 83.2189 82.0845C82.8184 82.0845 82.4803 81.9993 82.2047 81.8289C81.932 81.6584 81.7246 81.4311 81.5826 81.147C81.4405 80.863 81.3695 80.5519 81.3695 80.2138ZM82.4903 79.7536V80.2138C82.4903 80.4411 82.5428 80.6485 82.6479 80.836C82.7559 81.0206 82.9462 81.113 83.2189 81.113C83.4917 81.113 83.6792 81.0206 83.7814 80.836C83.8866 80.6485 83.9391 80.4411 83.9391 80.2138V79.7536C83.9391 79.5263 83.8894 79.3189 83.79 79.1314C83.6905 78.9411 83.5002 78.8459 83.2189 78.8459C82.9491 78.8459 82.7601 78.9411 82.6522 79.1314C82.5442 79.3218 82.4903 79.5291 82.4903 79.7536ZM81.8553 86.8445L87.8553 78.1172H88.9206L82.9206 86.8445H81.8553Z" fill="#F3F6F7"/>
<g filter="url(#filter0_d_1085_10557)">
<rect x="5" y="6" width="35" height="19" rx="9.5" fill="white" shape-rendering="crispEdges"/>
<path d="M15.4077 20.1193C14.794 20.1193 14.2486 20.0142 13.7713 19.804C13.2969 19.5937 12.9219 19.3011 12.6463 18.9261C12.3707 18.5511 12.2244 18.1179 12.2074 17.6264H13.8097C13.8239 17.8622 13.902 18.0682 14.044 18.2443C14.1861 18.4176 14.375 18.5526 14.6108 18.6491C14.8466 18.7457 15.1108 18.794 15.4034 18.794C15.7159 18.794 15.9929 18.7401 16.2344 18.6321C16.4759 18.5213 16.6648 18.3679 16.8011 18.1719C16.9375 17.9759 17.0043 17.75 17.0014 17.4943C17.0043 17.2301 16.9361 16.9972 16.7969 16.7955C16.6577 16.5937 16.456 16.4361 16.1918 16.3224C15.9304 16.2088 15.6151 16.152 15.2457 16.152H14.4744V14.9332H15.2457C15.5497 14.9332 15.8153 14.8807 16.0426 14.7756C16.2727 14.6705 16.4531 14.5227 16.5838 14.3324C16.7145 14.1392 16.7784 13.9162 16.7756 13.6634C16.7784 13.4162 16.723 13.2017 16.6094 13.0199C16.4986 12.8352 16.3409 12.6918 16.1364 12.5895C15.9347 12.4872 15.6974 12.4361 15.4247 12.4361C15.1577 12.4361 14.9105 12.4844 14.6832 12.581C14.456 12.6776 14.2727 12.8153 14.1335 12.9943C13.9943 13.1705 13.9205 13.3807 13.9119 13.625H12.3906C12.402 13.1364 12.5426 12.7074 12.8125 12.3381C13.0852 11.9659 13.4489 11.6761 13.9034 11.4688C14.358 11.2585 14.8679 11.1534 15.4332 11.1534C16.0156 11.1534 16.5213 11.2628 16.9503 11.4815C17.3821 11.6974 17.7159 11.9886 17.9517 12.3551C18.1875 12.7216 18.3054 13.1264 18.3054 13.5696C18.3082 14.0611 18.1634 14.473 17.8707 14.8054C17.581 15.1378 17.2003 15.3551 16.7287 15.4574V15.5256C17.3423 15.6108 17.8125 15.8381 18.1392 16.2074C18.4688 16.5739 18.6321 17.0298 18.6293 17.5753C18.6293 18.0639 18.4901 18.5014 18.2116 18.8878C17.9361 19.2713 17.5554 19.5724 17.0696 19.7912C16.5866 20.0099 16.0327 20.1193 15.4077 20.1193ZM23.3178 20.1662C22.6161 20.1662 22.0138 19.9886 21.511 19.6335C21.011 19.2756 20.6261 18.7599 20.3562 18.0866C20.0891 17.4105 19.9556 16.5966 19.9556 15.6449C19.9585 14.6932 20.0934 13.8835 20.3604 13.2159C20.6303 12.5455 21.0153 12.0341 21.5153 11.6818C22.0181 11.3295 22.619 11.1534 23.3178 11.1534C24.0167 11.1534 24.6175 11.3295 25.1204 11.6818C25.6232 12.0341 26.0082 12.5455 26.2752 13.2159C26.5451 13.8864 26.68 14.696 26.68 15.6449C26.68 16.5994 26.5451 17.4148 26.2752 18.0909C26.0082 18.7642 25.6232 19.2784 25.1204 19.6335C24.6204 19.9886 24.0195 20.1662 23.3178 20.1662ZM23.3178 18.8324C23.8633 18.8324 24.2937 18.5639 24.609 18.027C24.9272 17.4872 25.0863 16.6932 25.0863 15.6449C25.0863 14.9517 25.0138 14.3693 24.869 13.8977C24.7241 13.4261 24.5195 13.071 24.2553 12.8324C23.9911 12.5909 23.6786 12.4702 23.3178 12.4702C22.7752 12.4702 22.3462 12.7401 22.0309 13.2798C21.7156 13.8168 21.5565 14.6051 21.5536 15.6449C21.5508 16.3409 21.6204 16.9261 21.7624 17.4006C21.9073 17.875 22.1119 18.233 22.3761 18.4744C22.6403 18.7131 22.9542 18.8324 23.3178 18.8324ZM32.7621 18.3636V17.9034C32.7621 17.5653 32.8331 17.2543 32.9751 16.9702C33.12 16.6861 33.3303 16.4574 33.6058 16.2841C33.8814 16.1108 34.2152 16.0241 34.6072 16.0241C35.0107 16.0241 35.3487 16.1108 35.6214 16.2841C35.8942 16.4545 36.1001 16.6818 36.2393 16.9659C36.3814 17.25 36.4524 17.5625 36.4524 17.9034V18.3636C36.4524 18.7017 36.3814 19.0128 36.2393 19.2969C36.0973 19.581 35.8885 19.8097 35.6129 19.983C35.3402 20.1563 35.005 20.2429 34.6072 20.2429C34.2095 20.2429 33.8729 20.1563 33.5973 19.983C33.3217 19.8097 33.1129 19.581 32.9709 19.2969C32.8317 19.0128 32.7621 18.7017 32.7621 18.3636ZM33.8743 17.9034V18.3636C33.8743 18.5881 33.9283 18.794 34.0362 18.9815C34.1442 19.169 34.3345 19.2628 34.6072 19.2628C34.8828 19.2628 35.0717 19.1705 35.174 18.9858C35.2791 18.7983 35.3317 18.5909 35.3317 18.3636V17.9034C35.3317 17.6761 35.282 17.4688 35.1825 17.2812C35.0831 17.0909 34.8913 16.9957 34.6072 16.9957C34.3402 16.9957 34.1513 17.0909 34.0405 17.2812C33.9297 17.4688 33.8743 17.6761 33.8743 17.9034ZM28.326 13.3693V12.9091C28.326 12.5682 28.3984 12.2557 28.5433 11.9716C28.6882 11.6875 28.8984 11.4602 29.174 11.2898C29.4496 11.1165 29.7834 11.0298 30.1754 11.0298C30.576 11.0298 30.9126 11.1165 31.1854 11.2898C31.4609 11.4602 31.6683 11.6875 31.8075 11.9716C31.9467 12.2557 32.0163 12.5682 32.0163 12.9091V13.3693C32.0163 13.7102 31.9453 14.0227 31.8033 14.3068C31.6641 14.5881 31.4567 14.8139 31.1811 14.9844C30.9055 15.1548 30.5703 15.2401 30.1754 15.2401C29.7749 15.2401 29.4368 15.1548 29.1612 14.9844C28.8885 14.8139 28.6811 14.5866 28.5391 14.3026C28.397 14.0185 28.326 13.7074 28.326 13.3693ZM29.4467 12.9091V13.3693C29.4467 13.5966 29.4993 13.804 29.6044 13.9915C29.7124 14.1761 29.9027 14.2685 30.1754 14.2685C30.4482 14.2685 30.6357 14.1761 30.7379 13.9915C30.843 13.804 30.8956 13.5966 30.8956 13.3693V12.9091C30.8956 12.6818 30.8459 12.4744 30.7464 12.2869C30.647 12.0966 30.4567 12.0014 30.1754 12.0014C29.9055 12.0014 29.7166 12.0966 29.6087 12.2869C29.5007 12.4773 29.4467 12.6847 29.4467 12.9091ZM28.8118 20L34.8118 11.2727H35.8771L29.8771 20H28.8118Z" fill="#0269D0"/>
</g>
<path d="M100.372 42.0613C106.314 39.8737 113.03 42.9245 113.993 49.1825C115.227 57.194 114.754 65.4208 112.553 73.3122C109.318 84.9077 102.516 95.1907 93.1095 102.704C83.7033 110.216 72.1709 114.578 60.1473 115.169C51.9645 115.572 43.8367 114.214 36.2961 111.24C30.4058 108.917 28.9151 101.693 32.362 96.3816C35.809 91.0702 42.9271 89.7834 49.0738 91.3032C52.3054 92.1021 55.6553 92.4327 59.0208 92.2672C66.2355 91.9123 73.1555 89.2953 78.7997 84.7873C84.4438 80.2793 88.5257 74.1089 90.4666 67.1511C91.372 63.9055 91.7901 60.5654 91.7252 57.2372C91.6018 50.9065 94.4303 44.2489 100.372 42.0613Z" fill="#FF3739"/>
</g>
<defs>
<filter id="filter0_d_1085_10557" x="1" y="6" width="43" height="27" filterUnits="userSpaceOnUse" color-interpolation-filters="sRGB">
<feFlood flood-opacity="0" result="BackgroundImageFix"/>
<feColorMatrix in="SourceAlpha" type="matrix" values="0 0 0 0 0 0 0 0 0 0 0 0 0 0 0 0 0 0 127 0" result="hardAlpha"/>
<feOffset dy="4"/>
<feGaussianBlur stdDeviation="2"/>
<feComposite in2="hardAlpha" operator="out"/>
<feColorMatrix type="matrix" values="0 0 0 0 0 0 0 0 0 0 0 0 0 0 0 0 0 0 0.25 0"/>
<feBlend mode="normal" in2="BackgroundImageFix" result="effect1_dropShadow_1085_10557"/>
<feBlend mode="normal" in="SourceGraphic" in2="effect1_dropShadow_1085_10557" result="shape"/>
</filter>
<clipPath id="clip0_1085_10557">
<rect width="114.661" height="114.661" fill="white" transform="translate(0 0.576965)"/>
</clipPath>
</defs>
</svg>
