<svg width="22" height="22" viewBox="0 0 22 22" fill="none" xmlns="http://www.w3.org/2000/svg">
<path d="M10.9083 16.2454C12.7773 16.2454 14.2924 14.7303 14.2924 12.8613C14.2924 10.9923 12.7773 9.47716 10.9083 9.47716C9.03932 9.47716 7.5242 10.9923 7.5242 12.8613C7.5242 14.7303 9.03932 16.2454 10.9083 16.2454Z" stroke="#F182D9" stroke-width="1.5" stroke-miterlimit="10" stroke-linecap="round" stroke-linejoin="round"/>
<path d="M9.5885 12.9459L10.1384 13.4958C10.2992 13.6565 10.5614 13.6565 10.7222 13.5042L12.2281 12.1168" stroke="#F182D9" stroke-width="1.5" stroke-linecap="round" stroke-linejoin="round"/>
<path d="M7.5242 19.4603H14.2924C17.6934 19.4603 18.3026 18.0982 18.4802 16.4399L19.1148 9.67174C19.3432 7.60744 18.751 5.92384 15.1384 5.92384H6.67818C3.06565 5.92384 2.47343 7.60744 2.70186 9.67174L3.33637 16.4399C3.51404 18.0982 4.12318 19.4603 7.5242 19.4603Z" stroke="#F182D9" stroke-width="1.5" stroke-miterlimit="10" stroke-linecap="round" stroke-linejoin="round"/>
<path d="M7.5242 5.92384V5.24702C7.5242 3.74955 7.5242 2.53973 10.2315 2.53973H11.5851C14.2924 2.53973 14.2924 3.74955 14.2924 5.24702V5.92384" stroke="#F182D9" stroke-width="1.5" stroke-miterlimit="10" stroke-linecap="round" stroke-linejoin="round"/>
<path d="M19.0725 10.154C17.6088 11.22 15.9845 11.9645 14.3009 12.3875" stroke="#F182D9" stroke-width="1.5" stroke-miterlimit="10" stroke-linecap="round" stroke-linejoin="round"/>
<path d="M2.97258 10.3824C4.38544 11.3469 5.92521 12.0322 7.5242 12.4213" stroke="#F182D9" stroke-width="1.5" stroke-miterlimit="10" stroke-linecap="round" stroke-linejoin="round"/>
</svg>
