<svg width="17" height="16" viewBox="0 0 17 16" fill="none" xmlns="http://www.w3.org/2000/svg">
<circle cx="8.617" cy="8.09821" r="7.91132" fill="#211E1E" fill-opacity="0.1"/>
<path d="M11.0378 5.3857V5.69403L9.56283 4.83987C9.0045 4.51903 8.22533 4.51903 7.67117 4.83987L6.19617 5.6982V5.3857C6.19617 4.4482 6.70867 3.93153 7.64617 3.93153H9.58783C10.5253 3.93153 11.0378 4.4482 11.0378 5.3857Z" fill="#013467"/>
<path d="M11.0503 6.41904L10.992 6.38988L10.4253 6.06488L9.25032 5.38571C8.89198 5.17738 8.34198 5.17738 7.98365 5.38571L6.80865 6.06071L6.24198 6.39404L6.16698 6.43155C5.43782 6.92321 5.38782 7.01488 5.38782 7.80238V9.68571C5.38782 10.4732 5.43782 10.5649 6.18365 11.069L7.98365 12.1065C8.16282 12.2149 8.38782 12.2607 8.61698 12.2607C8.84198 12.2607 9.07115 12.2107 9.25032 12.1065L11.067 11.0565C11.8003 10.5649 11.8462 10.4774 11.8462 9.68571V7.80238C11.8462 7.01488 11.7962 6.92321 11.0503 6.41904ZM9.77948 8.72321L9.52532 9.03571C9.48365 9.08155 9.45448 9.16905 9.45865 9.23154L9.48365 9.63155C9.50032 9.87738 9.32532 10.0024 9.09615 9.91488L8.72532 9.76488C8.66698 9.74404 8.57115 9.74404 8.51282 9.76488L8.14198 9.91071C7.91282 10.0024 7.73782 9.87321 7.75448 9.62738L7.77948 9.22738C7.78365 9.16488 7.75448 9.07738 7.71282 9.03154L7.45448 8.72321C7.29615 8.53571 7.36698 8.32738 7.60448 8.26488L7.99198 8.16488C8.05448 8.14821 8.12532 8.08988 8.15865 8.03988L8.37532 7.70655C8.50865 7.49821 8.72115 7.49821 8.85865 7.70655L9.07532 8.03988C9.10865 8.09404 9.18365 8.14821 9.24198 8.16488L9.62948 8.26488C9.86698 8.32738 9.93782 8.53571 9.77948 8.72321Z" fill="#013467"/>
</svg>
