<svg width="25" height="25" viewBox="0 0 25 25" fill="none" xmlns="http://www.w3.org/2000/svg">
<path d="M10.6098 11.2354H7.95981C7.32981 11.2354 6.81982 11.7453 6.81982 12.3753V17.4953H10.6098V11.2354V11.2354Z" stroke="#013467" stroke-width="1.5" stroke-miterlimit="10" stroke-linecap="round" stroke-linejoin="round"/>
<path d="M13.2601 6.68555H11.7401C11.1101 6.68555 10.6001 7.19556 10.6001 7.82556V17.4856H14.3901V7.82556C14.3901 7.19556 13.8901 6.68555 13.2601 6.68555Z" stroke="#013467" stroke-width="1.5" stroke-miterlimit="10" stroke-linecap="round" stroke-linejoin="round"/>
<path d="M17.0499 12.9355H14.3999V17.4856H18.1899V14.0756C18.1799 13.4456 17.6699 12.9355 17.0499 12.9355Z" stroke="#013467" stroke-width="1.5" stroke-miterlimit="10" stroke-linecap="round" stroke-linejoin="round"/>
<path d="M9.5 22.0859H15.5C20.5 22.0859 22.5 20.0859 22.5 15.0859V9.08594C22.5 4.08594 20.5 2.08594 15.5 2.08594H9.5C4.5 2.08594 2.5 4.08594 2.5 9.08594V15.0859C2.5 20.0859 4.5 22.0859 9.5 22.0859Z" stroke="#013467" stroke-width="1.5" stroke-linecap="round" stroke-linejoin="round"/>
</svg>
