<svg width="17" height="16" viewBox="0 0 17 16" fill="none" xmlns="http://www.w3.org/2000/svg">
<circle cx="8.617" cy="8.09821" r="7.91132" fill="#211E1E" fill-opacity="0.1"/>
<path d="M12.7837 5.11904V10.0732C12.7837 10.4774 12.4545 10.8482 12.0503 10.8982L11.9212 10.9149C11.2378 11.0065 10.2753 11.2899 9.50034 11.6149C9.2295 11.7274 8.9295 11.5232 8.9295 11.2274V5.43154C8.9295 5.27737 9.017 5.13571 9.1545 5.06071C9.917 4.64821 11.0712 4.28154 11.8545 4.21487H11.8795C12.3795 4.21487 12.7837 4.61904 12.7837 5.11904Z" fill="#292D32"/>
<path d="M8.0795 5.06071C7.317 4.64821 6.16283 4.28154 5.3795 4.21487H5.35033C4.85033 4.21487 4.44617 4.61904 4.44617 5.11904V10.0732C4.44617 10.4774 4.77533 10.8482 5.1795 10.8982L5.30867 10.9149C5.992 11.0065 6.9545 11.2899 7.7295 11.6149C8.00033 11.7274 8.30033 11.5232 8.30033 11.2274V5.43154C8.30033 5.27321 8.217 5.13571 8.0795 5.06071ZM5.70033 6.32321H6.63783C6.80867 6.32321 6.95033 6.46487 6.95033 6.63571C6.95033 6.81071 6.80867 6.94821 6.63783 6.94821H5.70033C5.5295 6.94821 5.38783 6.81071 5.38783 6.63571C5.38783 6.46487 5.5295 6.32321 5.70033 6.32321ZM6.95033 8.19821H5.70033C5.5295 8.19821 5.38783 8.06071 5.38783 7.88571C5.38783 7.71487 5.5295 7.57321 5.70033 7.57321H6.95033C7.12117 7.57321 7.26283 7.71487 7.26283 7.88571C7.26283 8.06071 7.12117 8.19821 6.95033 8.19821Z" fill="#292D32"/>
</svg>
