<svg width="17" height="16" viewBox="0 0 17 16" fill="none" xmlns="http://www.w3.org/2000/svg">
<circle cx="8.617" cy="8.09821" r="7.91132" fill="#211E1E" fill-opacity="0.1"/>
<g clip-path="url(#clip0_585_2403)">
<path d="M6.63365 3.93152H5.84198C4.92948 3.93152 4.45032 4.41069 4.45032 5.31902V6.11069C4.45032 7.01902 4.92948 7.49819 5.83782 7.49819H6.62948C7.53782 7.49819 8.01698 7.01902 8.01698 6.11069V5.31902C8.02115 4.41069 7.54198 3.93152 6.63365 3.93152ZM11.3962 3.93152H10.6045C9.69615 3.93152 9.21698 4.41069 9.21698 5.31902V6.11069C9.21698 7.01902 9.69615 7.49819 10.6045 7.49819H11.3962C12.3045 7.49819 12.7837 7.01902 12.7837 6.11069V5.31902C12.7837 4.41069 12.3045 3.93152 11.3962 3.93152ZM11.3962 8.69402H10.6045C9.69615 8.69402 9.21698 9.17319 9.21698 10.0815V10.8732C9.21698 11.7815 9.69615 12.2607 10.6045 12.2607H11.3962C12.3045 12.2607 12.7837 11.7815 12.7837 10.8732V10.0815C12.7837 9.17319 12.3045 8.69402 11.3962 8.69402ZM6.63365 8.69402H5.84198C4.92948 8.69402 4.45032 9.17319 4.45032 10.0815V10.8732C4.45032 11.7857 4.92948 12.2649 5.83782 12.2649H6.62948C7.53782 12.2649 8.01698 11.7857 8.01698 10.8774V10.0857C8.02115 9.17319 7.54198 8.69402 6.63365 8.69402Z" fill="#013467"/>
</g>
<defs>
<clipPath id="clip0_585_2403">
<rect width="10" height="10" fill="white" transform="translate(3.617 3.09821)"/>
</clipPath>
</defs>
</svg>
