<svg width="49" height="26" viewBox="0 0 49 26" fill="none" xmlns="http://www.w3.org/2000/svg">
<rect x="0.792236" y="0.555664" width="48" height="25" rx="2" fill="#04A7A7" fill-opacity="0.1"/>
<path d="M6.28984 18.5557V8.37385H12.4347V9.4676H7.52279V12.9079H12.1165V14.0017H7.52279V17.4619H12.5143V18.5557H6.28984ZM17.3815 18.7148C16.7451 18.7148 16.1833 18.554 15.6961 18.2325C15.2089 17.9077 14.8277 17.4503 14.5526 16.8604C14.2775 16.2671 14.14 15.5661 14.14 14.7574C14.14 13.9553 14.2775 13.2593 14.5526 12.6693C14.8277 12.0793 15.2105 11.6236 15.7011 11.3021C16.1916 10.9806 16.7584 10.8199 17.4013 10.8199C17.8985 10.8199 18.2913 10.9027 18.5796 11.0684C18.8713 11.2309 19.0933 11.4165 19.2458 11.6253C19.4016 11.8308 19.5226 11.9998 19.6087 12.1324H19.7082V8.37385H20.8815V18.5557H19.7479V17.3824H19.6087C19.5226 17.5216 19.3999 17.6972 19.2408 17.9094C19.0817 18.1182 18.8547 18.3054 18.5597 18.4711C18.2647 18.6336 17.872 18.7148 17.3815 18.7148ZM17.5405 17.6608C18.0112 17.6608 18.4089 17.5381 18.7337 17.2929C19.0585 17.0443 19.3055 16.7013 19.4745 16.2638C19.6435 15.8229 19.728 15.3142 19.728 14.7375C19.728 14.1674 19.6452 13.6686 19.4795 13.241C19.3138 12.8102 19.0685 12.4754 18.7437 12.2368C18.4189 11.9948 18.0178 11.8738 17.5405 11.8738C17.0434 11.8738 16.6291 12.0014 16.2977 12.2567C15.9695 12.5086 15.7226 12.8516 15.5569 13.2858C15.3945 13.7166 15.3133 14.2006 15.3133 14.7375C15.3133 15.281 15.3961 15.7749 15.5619 16.219C15.7309 16.6598 15.9795 17.0112 16.3076 17.273C16.639 17.5315 17.05 17.6608 17.5405 17.6608ZM23.1932 18.5557V10.9193H24.3665V18.5557H23.1932ZM23.7898 9.64657C23.5611 9.64657 23.3639 9.56868 23.1982 9.41291C23.0358 9.25713 22.9546 9.06987 22.9546 8.85112C22.9546 8.63237 23.0358 8.44511 23.1982 8.28933C23.3639 8.13355 23.5611 8.05566 23.7898 8.05566C24.0185 8.05566 24.2141 8.13355 24.3765 8.28933C24.5422 8.44511 24.6251 8.63237 24.6251 8.85112C24.6251 9.06987 24.5422 9.25713 24.3765 9.41291C24.2141 9.56868 24.0185 9.64657 23.7898 9.64657ZM29.8365 10.9193V11.9136H25.8792V10.9193H29.8365ZM27.0326 9.08975H28.2059V16.3682C28.2059 16.6996 28.2539 16.9482 28.35 17.1139C28.4495 17.2763 28.5754 17.3857 28.7279 17.442C28.8836 17.4951 29.0477 17.5216 29.2201 17.5216C29.3493 17.5216 29.4554 17.5149 29.5382 17.5017C29.6211 17.4851 29.6874 17.4719 29.7371 17.4619L29.9757 18.5159C29.8962 18.5457 29.7852 18.5756 29.6426 18.6054C29.5001 18.6385 29.3195 18.6551 29.1007 18.6551C28.7693 18.6551 28.4445 18.5838 28.1263 18.4413C27.8114 18.2988 27.5496 18.0817 27.3408 17.79C27.1353 17.4984 27.0326 17.1305 27.0326 16.6863V9.08975Z" fill="#225765"/>
<g clip-path="url(#clip0_714_2996)">
<path d="M43.5422 17.2215H36.0422C35.8714 17.2215 35.7297 17.0799 35.7297 16.909C35.7297 16.7382 35.8714 16.5965 36.0422 16.5965H43.5422C43.7131 16.5965 43.8547 16.7382 43.8547 16.909C43.8547 17.0799 43.7131 17.2215 43.5422 17.2215ZM42.7172 9.50569C41.9089 8.69736 41.1172 8.67652 40.2881 9.50569L39.7839 10.0099C39.7422 10.0515 39.7256 10.1182 39.7422 10.1765C39.9016 10.7233 40.1963 11.2212 40.599 11.6239C41.0018 12.0267 41.4996 12.3213 42.0464 12.4807C42.0759 12.4904 42.1076 12.4916 42.1378 12.4842C42.1679 12.4769 42.1955 12.4612 42.2172 12.439L42.7172 11.9349C43.1297 11.5265 43.3297 11.1307 43.3297 10.7307C43.3339 10.3182 43.1339 9.91819 42.7172 9.50569ZM41.2964 12.859C41.1756 12.8007 41.0589 12.7424 40.9464 12.6757C40.855 12.6213 40.766 12.5629 40.6797 12.5007C40.6089 12.4549 40.5256 12.3882 40.4464 12.3215C40.4209 12.3029 40.3972 12.282 40.3756 12.259C40.2381 12.1424 40.0839 11.9924 39.9464 11.8257C39.9339 11.8174 39.9131 11.7882 39.8839 11.7507C39.8422 11.7007 39.7714 11.6174 39.7089 11.5215C39.6495 11.4432 39.5952 11.361 39.5464 11.2757C39.4797 11.1632 39.4214 11.0507 39.3631 10.934C39.3544 10.9154 39.3459 10.8966 39.3377 10.8778C39.276 10.739 39.0947 10.6986 38.9877 10.8057L36.6006 13.1928C36.5464 13.2469 36.4964 13.3511 36.4839 13.4219L36.2589 15.0178C36.2172 15.3011 36.2964 15.5678 36.4714 15.7469C36.6214 15.8928 36.8297 15.9719 37.0547 15.9719C37.1047 15.9719 37.1547 15.9678 37.2047 15.9594L38.8047 15.7344C38.8797 15.7219 38.9839 15.6719 39.0339 15.6178L41.4181 13.234C41.5264 13.1257 41.4852 12.9403 41.3447 12.8799C41.3286 12.8729 41.3125 12.866 41.2964 12.859Z" fill="#225765"/>
</g>
<defs>
<clipPath id="clip0_714_2996">
<rect width="10" height="10" fill="white" transform="translate(34.7922 8.05566)"/>
</clipPath>
</defs>
</svg>
