<svg width="17" height="17" viewBox="0 0 17 17" fill="none" xmlns="http://www.w3.org/2000/svg">
<circle cx="8.55194" cy="8.21191" r="7.91132" fill="white"/>
<circle cx="8.55194" cy="8.21191" r="7.91132" fill="#211E1E" fill-opacity="0.1"/>
<path d="M7.3903 4.13394C6.29863 4.13394 5.41113 5.02144 5.41113 6.11311C5.41113 7.18394 6.24863 8.05061 7.3403 8.08811C7.37363 8.08394 7.40697 8.08394 7.43197 8.08811C7.4403 8.08811 7.44447 8.08811 7.4528 8.08811C7.45697 8.08811 7.45697 8.08811 7.46113 8.08811C8.5278 8.05061 9.3653 7.18394 9.36947 6.11311C9.36947 5.02144 8.48197 4.13394 7.3903 4.13394Z" fill="#013467"/>
<path d="M9.50703 9.19642C8.34453 8.42142 6.4487 8.42142 5.27786 9.19642C4.7487 9.55059 4.45703 10.0298 4.45703 10.5423C4.45703 11.0548 4.7487 11.5298 5.2737 11.8798C5.85703 12.2714 6.6237 12.4673 7.39036 12.4673C8.15703 12.4673 8.9237 12.2714 9.50703 11.8798C10.032 11.5256 10.3237 11.0506 10.3237 10.5339C10.3195 10.0214 10.032 9.54642 9.50703 9.19642Z" fill="#013467"/>
<path d="M11.9695 6.35892C12.0362 7.16726 11.4612 7.87559 10.6654 7.97142C10.6612 7.97142 10.6612 7.97142 10.657 7.97142H10.6445C10.6195 7.97142 10.5945 7.97142 10.5737 7.97976C10.1695 8.00059 9.7987 7.87142 9.51953 7.63392C9.9487 7.25059 10.1945 6.67559 10.1445 6.05059C10.1154 5.71309 9.9987 5.40476 9.8237 5.14226C9.98203 5.06309 10.1654 5.01309 10.3529 4.99642C11.1695 4.92559 11.8987 5.53392 11.9695 6.35892Z" fill="#013467"/>
<path d="M12.8031 10.2131C12.7697 10.6173 12.5114 10.9673 12.0781 11.2048C11.6614 11.4339 11.1364 11.5423 10.6156 11.5298C10.9156 11.2589 11.0906 10.9214 11.1239 10.5631C11.1656 10.0464 10.9197 9.55059 10.4281 9.15476C10.1489 8.93392 9.82389 8.75892 9.46973 8.62976C10.3906 8.36309 11.5489 8.54226 12.2614 9.11726C12.6447 9.42559 12.8406 9.81309 12.8031 10.2131Z" fill="#013467"/>
</svg>
