<svg width="25" height="25" viewBox="0 0 25 25" fill="none" xmlns="http://www.w3.org/2000/svg">
<path d="M22.1799 17.0456L19.0499 9.73558C17.9899 7.25558 16.0399 7.15558 14.7299 9.51558L12.8399 12.9256C11.8799 14.6556 10.0899 14.8056 8.84993 13.2556L8.62993 12.9756C7.33993 11.3556 5.51993 11.5556 4.58993 13.4056L2.86993 16.8556C1.65993 19.2556 3.40993 22.0856 6.08993 22.0856H18.8499C21.4499 22.0856 23.1999 19.4356 22.1799 17.0456Z" stroke="#013467" stroke-width="1.5" stroke-linecap="round" stroke-linejoin="round"/>
<path d="M7.47021 8.08594C9.12707 8.08594 10.4702 6.74279 10.4702 5.08594C10.4702 3.42908 9.12707 2.08594 7.47021 2.08594C5.81336 2.08594 4.47021 3.42908 4.47021 5.08594C4.47021 6.74279 5.81336 8.08594 7.47021 8.08594Z" stroke="#013467" stroke-width="1.5" stroke-linecap="round" stroke-linejoin="round"/>
</svg>
