<svg width="25" height="25" viewBox="0 0 25 25" fill="none" xmlns="http://www.w3.org/2000/svg">
<path d="M22.5 6.08594V8.50594C22.5 10.0859 21.5 11.0859 19.92 11.0859H16.5V4.09594C16.5 2.98594 17.41 2.08594 18.52 2.08594C19.61 2.09594 20.61 2.53594 21.33 3.25594C22.05 3.98594 22.5 4.98594 22.5 6.08594Z" stroke="#013467" stroke-width="1.5" stroke-miterlimit="10" stroke-linecap="round" stroke-linejoin="round"/>
<path d="M2.5 7.08594V21.0859C2.5 21.9159 3.44 22.3859 4.1 21.8859L5.81 20.6059C6.21 20.3059 6.77 20.3459 7.13 20.7059L8.79 22.3759C9.18 22.7659 9.82 22.7659 10.21 22.3759L11.89 20.6959C12.24 20.3459 12.8 20.3059 13.19 20.6059L14.9 21.8859C15.56 22.3759 16.5 21.9059 16.5 21.0859V4.08594C16.5 2.98594 17.4 2.08594 18.5 2.08594H7.5H6.5C3.5 2.08594 2.5 3.87594 2.5 6.08594V7.08594Z" stroke="#013467" stroke-width="1.5" stroke-miterlimit="10" stroke-linecap="round" stroke-linejoin="round"/>
<path d="M6.77002 13.8155L12.23 8.35547" stroke="#013467" stroke-width="1.5" stroke-linecap="round" stroke-linejoin="round"/>
<path d="M12.4247 13.5859H12.4337" stroke="#013467" stroke-width="2" stroke-linecap="round" stroke-linejoin="round"/>
<path d="M6.6947 8.58594H6.70368" stroke="#013467" stroke-width="2" stroke-linecap="round" stroke-linejoin="round"/>
</svg>
