<svg width="25" height="25" viewBox="0 0 25 25" fill="none" xmlns="http://www.w3.org/2000/svg">
<path d="M9.5 22.0859H15.5C20.5 22.0859 22.5 20.0859 22.5 15.0859V9.08594C22.5 4.08594 20.5 2.08594 15.5 2.08594H9.5C4.5 2.08594 2.5 4.08594 2.5 9.08594V15.0859C2.5 20.0859 4.5 22.0859 9.5 22.0859Z" stroke="#013467" stroke-width="1.5" stroke-linecap="round" stroke-linejoin="round"/>
<path d="M7.5 12.2461H10.18C10.89 12.2461 11.37 12.7861 11.37 13.4361V14.9261C11.37 15.5761 10.89 16.1161 10.18 16.1161H8.69C8.04 16.1161 7.5 15.5761 7.5 14.9261V12.2461" stroke="#013467" stroke-width="1.5" stroke-linecap="round" stroke-linejoin="round"/>
<path d="M7.5 12.2457C7.5 9.45567 8.02 8.98566 9.59 8.05566" stroke="#013467" stroke-width="1.5" stroke-linecap="round" stroke-linejoin="round"/>
<path d="M13.6401 12.2461H16.3201C17.0301 12.2461 17.5101 12.7861 17.5101 13.4361V14.9261C17.5101 15.5761 17.0301 16.1161 16.3201 16.1161H14.8301C14.1801 16.1161 13.6401 15.5761 13.6401 14.9261V12.2461" stroke="#013467" stroke-width="1.5" stroke-linecap="round" stroke-linejoin="round"/>
<path d="M13.6401 12.2457C13.6401 9.45567 14.1601 8.98566 15.7301 8.05566" stroke="#013467" stroke-width="1.5" stroke-linecap="round" stroke-linejoin="round"/>
</svg>
