<svg width="17" height="17" viewBox="0 0 17 17" fill="none" xmlns="http://www.w3.org/2000/svg">
<circle cx="8.55145" cy="8.21149" r="7.91132" fill="white"/>
<path d="M10.1265 4.04483H6.97646C5.40146 4.04483 5.0098 4.46566 5.0098 6.14483V10.8365C5.0098 11.9448 5.61813 12.2073 6.35563 11.4157L6.3598 11.4115C6.70146 11.049 7.2223 11.0782 7.51813 11.474L7.93896 12.0365C8.27646 12.4823 8.8223 12.4823 9.1598 12.0365L9.58063 11.474C9.88063 11.074 10.4015 11.0448 10.7431 11.4115C11.4848 12.2032 12.089 11.9407 12.089 10.8323V6.14483C12.0931 4.46566 11.7015 4.04483 10.1265 4.04483ZM9.6973 7.69066H7.40563C7.2348 7.69066 7.09313 7.549 7.09313 7.37816C7.09313 7.20733 7.2348 7.06566 7.40563 7.06566H9.6973C9.86813 7.06566 10.0098 7.20733 10.0098 7.37816C10.0098 7.549 9.86813 7.69066 9.6973 7.69066Z" fill="#013467"/>
</svg>
