<svg width="17" height="16" viewBox="0 0 17 16" fill="none" xmlns="http://www.w3.org/2000/svg">
<circle cx="8.617" cy="8.09821" r="7.91132" fill="white"/>
<circle cx="8.617" cy="8.09821" r="7.91132" fill="#211E1E" fill-opacity="0.1"/>
<path d="M10.9212 6.3357C10.892 6.33153 10.8629 6.33153 10.8337 6.3357C10.1879 6.31487 9.67535 5.7857 9.67535 5.1357C9.67535 4.4732 10.2129 3.93153 10.8795 3.93153C11.542 3.93153 12.0837 4.46903 12.0837 5.1357C12.0795 5.7857 11.567 6.31487 10.9212 6.3357Z" fill="#013467"/>
<path d="M12.2795 9.22321C11.8129 9.53571 11.1587 9.65237 10.5545 9.57321C10.7129 9.23154 10.7962 8.85237 10.8004 8.45237C10.8004 8.03571 10.7087 7.63987 10.5337 7.29404C11.1504 7.21071 11.8045 7.32737 12.2754 7.63987C12.9337 8.07321 12.9337 8.78571 12.2795 9.22321Z" fill="#013467"/>
<path d="M6.30036 6.3357C6.32953 6.33153 6.3587 6.33153 6.38786 6.3357C7.0337 6.31487 7.5462 5.7857 7.5462 5.1357C7.5462 4.46903 7.0087 3.93153 6.34203 3.93153C5.67953 3.93153 5.14203 4.46903 5.14203 5.1357C5.14203 5.7857 5.65453 6.31487 6.30036 6.3357Z" fill="#013467"/>
<path d="M6.34616 8.45237C6.34616 8.85654 6.43366 9.23987 6.59199 9.58571C6.00449 9.64821 5.39199 9.52321 4.94199 9.22737C4.28366 8.78987 4.28366 8.07737 4.94199 7.63987C5.38783 7.33987 6.01699 7.21904 6.60866 7.28571C6.43783 7.63571 6.34616 8.03154 6.34616 8.45237Z" fill="#013467"/>
<path d="M8.667 9.71071C8.63367 9.70654 8.59617 9.70654 8.55867 9.71071C7.792 9.68571 7.1795 9.05654 7.1795 8.28154C7.18367 7.48987 7.82117 6.84821 8.617 6.84821C9.40867 6.84821 10.0503 7.48987 10.0503 8.28154C10.0462 9.05654 9.43784 9.68571 8.667 9.71071Z" fill="#013467"/>
<path d="M7.31282 10.5732C6.68365 10.994 6.68365 11.6857 7.31282 12.1024C8.02948 12.5815 9.20448 12.5815 9.92115 12.1024C10.5503 11.6815 10.5503 10.9899 9.92115 10.5732C9.20865 10.094 8.03365 10.094 7.31282 10.5732Z" fill="#013467"/>
</svg>
