<svg width="21" height="21" viewBox="0 0 21 21" fill="none" xmlns="http://www.w3.org/2000/svg">
<g opacity="0.7" clip-path="url(#clip0_651_1438)">
<path d="M14.1931 7.8418C16.0056 7.8518 16.9873 7.93263 17.6273 8.57263C18.3598 9.30513 18.3598 10.4835 18.3598 12.8401V13.6735C18.3598 16.031 18.3598 17.2093 17.6273 17.9418C16.8956 18.6735 15.7164 18.6735 13.3598 18.6735H6.69312C4.33645 18.6735 3.15728 18.6735 2.42562 17.9418C1.69312 17.2085 1.69312 16.031 1.69312 13.6735V12.8401C1.69312 10.4835 1.69312 9.30513 2.42562 8.57263C3.06562 7.93263 4.04728 7.8518 5.85978 7.8418" stroke="#275A7F" stroke-width="1.5" stroke-linecap="round"/>
<path d="M10.0266 12.8402V2.00684M10.0266 2.00684L12.5266 4.9235M10.0266 2.00684L7.52661 4.9235" stroke="#275A7F" stroke-width="1.5" stroke-linecap="round" stroke-linejoin="round"/>
</g>
<defs>
<clipPath id="clip0_651_1438">
<rect width="20" height="20" fill="white" transform="translate(0.0263672 0.339844)"/>
</clipPath>
</defs>
</svg>
