<svg width="138" height="116" viewBox="0 0 138 116" fill="none" xmlns="http://www.w3.org/2000/svg">
<g clip-path="url(#clip0_1091_10676)">
<mask id="path-1-inside-1_1091_10676" fill="white">
<path d="M116.071 44.0852C122.11 42.1801 128.675 45.5447 129.342 51.842C130.185 59.8016 129.357 67.8934 126.859 75.5868C123.174 86.938 116.038 96.856 106.447 103.958C96.8551 111.06 85.2866 114.991 73.354 115.204C65.2666 115.349 57.2852 113.78 49.918 110.651C44.0894 108.175 42.7868 100.914 46.3711 95.6936C49.9553 90.473 57.1054 89.3716 63.2114 91.0504C66.362 91.9167 69.6386 92.3348 72.9447 92.2757C80.1042 92.1479 87.0453 89.789 92.8002 85.5278C98.555 81.2667 102.837 75.3159 105.048 68.5052C106.069 65.3602 106.625 62.1042 106.716 58.838C106.892 52.5078 110.031 45.9902 116.071 44.0852Z"/>
</mask>
<path d="M116.071 44.0852C122.11 42.1801 128.675 45.5447 129.342 51.842C130.185 59.8016 129.357 67.8934 126.859 75.5868C123.174 86.938 116.038 96.856 106.447 103.958C96.8551 111.06 85.2866 114.991 73.354 115.204C65.2666 115.349 57.2852 113.78 49.918 110.651C44.0894 108.175 42.7868 100.914 46.3711 95.6936C49.9553 90.473 57.1054 89.3716 63.2114 91.0504C66.362 91.9167 69.6386 92.3348 72.9447 92.2757C80.1042 92.1479 87.0453 89.789 92.8002 85.5278C98.555 81.2667 102.837 75.3159 105.048 68.5052C106.069 65.3602 106.625 62.1042 106.716 58.838C106.892 52.5078 110.031 45.9902 116.071 44.0852Z" fill="#C59300" stroke="white" stroke-width="0.573306" mask="url(#path-1-inside-1_1091_10676)"/>
<path d="M72.3306 103.747C72.3306 110.08 67.1469 115.329 60.9406 114.071C53.6664 112.596 46.7111 109.715 40.4794 105.552C31.0515 99.2519 23.7033 90.2981 19.364 79.8223C15.0248 69.3465 13.8895 57.8192 16.1016 46.6982C18.3137 35.5771 23.7739 25.3618 31.7918 17.3439C39.8096 9.3261 50.0249 3.86589 61.146 1.65378C72.267 -0.558338 83.7943 0.577001 94.2701 4.91622C104.746 9.25545 113.7 16.6037 119.999 26.0316C124.163 32.2633 127.044 39.2186 128.518 46.4928C129.777 52.6991 124.528 57.8828 118.195 57.8828C111.863 57.8828 106.908 52.6117 104.836 46.6277C103.88 43.8679 102.572 41.2265 100.932 38.7721C97.1521 33.1153 91.7798 28.7064 85.4943 26.1029C79.2089 23.4993 72.2925 22.8181 65.6199 24.1454C58.9472 25.4727 52.818 28.7488 48.0073 33.5595C43.1966 38.3702 39.9205 44.4994 38.5932 51.172C37.2659 57.8447 37.9471 64.761 40.5507 71.0465C43.1542 77.332 47.5631 82.7043 53.2199 86.484C55.6743 88.124 58.3157 89.4322 61.0755 90.3878C67.0595 92.4598 72.3306 97.4148 72.3306 103.747Z" fill="#1300F2"/>
</g>
<g filter="url(#filter0_d_1091_10676)">
<rect x="99" y="80.3828" width="35" height="19" rx="9.5" fill="white" shape-rendering="crispEdges"/>
<path d="M109.408 94.5021C108.794 94.5021 108.249 94.397 107.771 94.1868C107.297 93.9766 106.922 93.6839 106.646 93.3089C106.371 92.9339 106.224 92.5007 106.207 92.0092H107.81C107.824 92.245 107.902 92.451 108.044 92.6271C108.186 92.8004 108.375 92.9354 108.611 93.032C108.847 93.1286 109.111 93.1768 109.403 93.1768C109.716 93.1768 109.993 93.1229 110.234 93.0149C110.476 92.9041 110.665 92.7507 110.801 92.5547C110.938 92.3587 111.004 92.1328 111.001 91.8771C111.004 91.6129 110.936 91.38 110.797 91.1783C110.658 90.9766 110.456 90.8189 110.192 90.7053C109.93 90.5916 109.615 90.5348 109.246 90.5348H108.474V89.3161H109.246C109.55 89.3161 109.815 89.2635 110.043 89.1584C110.273 89.0533 110.453 88.9055 110.584 88.7152C110.714 88.522 110.778 88.299 110.776 88.0462C110.778 87.799 110.723 87.5845 110.609 87.4027C110.499 87.218 110.341 87.0746 110.136 86.9723C109.935 86.87 109.697 86.8189 109.425 86.8189C109.158 86.8189 108.911 86.8672 108.683 86.9638C108.456 87.0604 108.273 87.1982 108.134 87.3771C107.994 87.5533 107.92 87.7635 107.912 88.0078H106.391C106.402 87.5192 106.543 87.0902 106.812 86.7209C107.085 86.3487 107.449 86.0589 107.903 85.8516C108.358 85.6413 108.868 85.5362 109.433 85.5362C110.016 85.5362 110.521 85.6456 110.95 85.8643C111.382 86.0803 111.716 86.3714 111.952 86.7379C112.188 87.1044 112.305 87.5092 112.305 87.9524C112.308 88.4439 112.163 88.8558 111.871 89.1882C111.581 89.5206 111.2 89.7379 110.729 89.8402V89.9084C111.342 89.9936 111.813 90.2209 112.139 90.5902C112.469 90.9567 112.632 91.4126 112.629 91.9581C112.629 92.4467 112.49 92.8842 112.212 93.2706C111.936 93.6541 111.555 93.9553 111.07 94.174C110.587 94.3928 110.033 94.5021 109.408 94.5021ZM117.318 94.549C116.616 94.549 116.014 94.3714 115.511 94.0163C115.011 93.6584 114.626 93.1428 114.356 92.4695C114.089 91.7933 113.956 90.9794 113.956 90.0277C113.958 89.076 114.093 88.2663 114.36 87.5987C114.63 86.9283 115.015 86.4169 115.515 86.0646C116.018 85.7124 116.619 85.5362 117.318 85.5362C118.017 85.5362 118.618 85.7124 119.12 86.0646C119.623 86.4169 120.008 86.9283 120.275 87.5987C120.545 88.2692 120.68 89.0788 120.68 90.0277C120.68 90.9822 120.545 91.7976 120.275 92.4737C120.008 93.147 119.623 93.6612 119.12 94.0163C118.62 94.3714 118.02 94.549 117.318 94.549ZM117.318 93.2152C117.863 93.2152 118.294 92.9467 118.609 92.4098C118.927 91.87 119.086 91.076 119.086 90.0277C119.086 89.3345 119.014 88.7521 118.869 88.2805C118.724 87.8089 118.52 87.4538 118.255 87.2152C117.991 86.9737 117.679 86.853 117.318 86.853C116.775 86.853 116.346 87.1229 116.031 87.6626C115.716 88.1996 115.556 88.9879 115.554 90.0277C115.551 90.7237 115.62 91.3089 115.762 91.7834C115.907 92.2578 116.112 92.6158 116.376 92.8572C116.64 93.0959 116.954 93.2152 117.318 93.2152ZM126.762 92.7464V92.2862C126.762 91.9482 126.833 91.6371 126.975 91.353C127.12 91.0689 127.33 90.8402 127.606 90.6669C127.881 90.4936 128.215 90.407 128.607 90.407C129.011 90.407 129.349 90.4936 129.621 90.6669C129.894 90.8374 130.1 91.0646 130.239 91.3487C130.381 91.6328 130.452 91.9453 130.452 92.2862V92.7464C130.452 93.0845 130.381 93.3956 130.239 93.6797C130.097 93.9638 129.888 94.1925 129.613 94.3658C129.34 94.5391 129.005 94.6257 128.607 94.6257C128.21 94.6257 127.873 94.5391 127.597 94.3658C127.322 94.1925 127.113 93.9638 126.971 93.6797C126.832 93.3956 126.762 93.0845 126.762 92.7464ZM127.874 92.2862V92.7464C127.874 92.9709 127.928 93.1768 128.036 93.3643C128.144 93.5518 128.335 93.6456 128.607 93.6456C128.883 93.6456 129.072 93.5533 129.174 93.3686C129.279 93.1811 129.332 92.9737 129.332 92.7464V92.2862C129.332 92.0589 129.282 91.8516 129.183 91.6641C129.083 91.4737 128.891 91.3786 128.607 91.3786C128.34 91.3786 128.151 91.4737 128.04 91.6641C127.93 91.8516 127.874 92.0589 127.874 92.2862ZM122.326 87.7521V87.2919C122.326 86.951 122.398 86.6385 122.543 86.3544C122.688 86.0703 122.898 85.843 123.174 85.6726C123.45 85.4993 123.783 85.4126 124.175 85.4126C124.576 85.4126 124.913 85.4993 125.185 85.6726C125.461 85.843 125.668 86.0703 125.808 86.3544C125.947 86.6385 126.016 86.951 126.016 87.2919V87.7521C126.016 88.093 125.945 88.4055 125.803 88.6896C125.664 88.9709 125.457 89.1967 125.181 89.3672C124.906 89.5376 124.57 89.6229 124.175 89.6229C123.775 89.6229 123.437 89.5376 123.161 89.3672C122.888 89.1967 122.681 88.9695 122.539 88.6854C122.397 88.4013 122.326 88.0902 122.326 87.7521ZM123.447 87.2919V87.7521C123.447 87.9794 123.499 88.1868 123.604 88.3743C123.712 88.5589 123.903 88.6513 124.175 88.6513C124.448 88.6513 124.636 88.5589 124.738 88.3743C124.843 88.1868 124.896 87.9794 124.896 87.7521V87.2919C124.896 87.0646 124.846 86.8572 124.746 86.6697C124.647 86.4794 124.457 86.3842 124.175 86.3842C123.906 86.3842 123.717 86.4794 123.609 86.6697C123.501 86.8601 123.447 87.0675 123.447 87.2919ZM122.812 94.3828L128.812 85.6555H129.877L123.877 94.3828H122.812Z" fill="#C59300"/>
</g>
<g filter="url(#filter1_d_1091_10676)">
<rect x="4" y="20.3828" width="35" height="19" rx="9.5" fill="white" shape-rendering="crispEdges"/>
<path d="M14.4077 34.5021C13.794 34.5021 13.2486 34.397 12.7713 34.1868C12.2969 33.9766 11.9219 33.6839 11.6463 33.3089C11.3707 32.9339 11.2244 32.5007 11.2074 32.0092H12.8097C12.8239 32.245 12.902 32.451 13.044 32.6271C13.1861 32.8004 13.375 32.9354 13.6108 33.032C13.8466 33.1286 14.1108 33.1768 14.4034 33.1768C14.7159 33.1768 14.9929 33.1229 15.2344 33.0149C15.4759 32.9041 15.6648 32.7507 15.8011 32.5547C15.9375 32.3587 16.0043 32.1328 16.0014 31.8771C16.0043 31.6129 15.9361 31.38 15.7969 31.1783C15.6577 30.9766 15.456 30.8189 15.1918 30.7053C14.9304 30.5916 14.6151 30.5348 14.2457 30.5348H13.4744V29.3161H14.2457C14.5497 29.3161 14.8153 29.2635 15.0426 29.1584C15.2727 29.0533 15.4531 28.9055 15.5838 28.7152C15.7145 28.522 15.7784 28.299 15.7756 28.0462C15.7784 27.799 15.723 27.5845 15.6094 27.4027C15.4986 27.218 15.3409 27.0746 15.1364 26.9723C14.9347 26.87 14.6974 26.8189 14.4247 26.8189C14.1577 26.8189 13.9105 26.8672 13.6832 26.9638C13.456 27.0604 13.2727 27.1982 13.1335 27.3771C12.9943 27.5533 12.9205 27.7635 12.9119 28.0078H11.3906C11.402 27.5192 11.5426 27.0902 11.8125 26.7209C12.0852 26.3487 12.4489 26.0589 12.9034 25.8516C13.358 25.6413 13.8679 25.5362 14.4332 25.5362C15.0156 25.5362 15.5213 25.6456 15.9503 25.8643C16.3821 26.0803 16.7159 26.3714 16.9517 26.7379C17.1875 27.1044 17.3054 27.5092 17.3054 27.9524C17.3082 28.4439 17.1634 28.8558 16.8707 29.1882C16.581 29.5206 16.2003 29.7379 15.7287 29.8402V29.9084C16.3423 29.9936 16.8125 30.2209 17.1392 30.5902C17.4688 30.9567 17.6321 31.4126 17.6293 31.9581C17.6293 32.4467 17.4901 32.8842 17.2116 33.2706C16.9361 33.6541 16.5554 33.9553 16.0696 34.174C15.5866 34.3928 15.0327 34.5021 14.4077 34.5021ZM22.3178 34.549C21.6161 34.549 21.0138 34.3714 20.511 34.0163C20.011 33.6584 19.6261 33.1428 19.3562 32.4695C19.0891 31.7933 18.9556 30.9794 18.9556 30.0277C18.9585 29.076 19.0934 28.2663 19.3604 27.5987C19.6303 26.9283 20.0153 26.4169 20.5153 26.0646C21.0181 25.7124 21.619 25.5362 22.3178 25.5362C23.0167 25.5362 23.6175 25.7124 24.1204 26.0646C24.6232 26.4169 25.0082 26.9283 25.2752 27.5987C25.5451 28.2692 25.68 29.0788 25.68 30.0277C25.68 30.9822 25.5451 31.7976 25.2752 32.4737C25.0082 33.147 24.6232 33.6612 24.1204 34.0163C23.6204 34.3714 23.0195 34.549 22.3178 34.549ZM22.3178 33.2152C22.8633 33.2152 23.2937 32.9467 23.609 32.4098C23.9272 31.87 24.0863 31.076 24.0863 30.0277C24.0863 29.3345 24.0138 28.7521 23.869 28.2805C23.7241 27.8089 23.5195 27.4538 23.2553 27.2152C22.9911 26.9737 22.6786 26.853 22.3178 26.853C21.7752 26.853 21.3462 27.1229 21.0309 27.6626C20.7156 28.1996 20.5565 28.9879 20.5536 30.0277C20.5508 30.7237 20.6204 31.3089 20.7624 31.7834C20.9073 32.2578 21.1119 32.6158 21.3761 32.8572C21.6403 33.0959 21.9542 33.2152 22.3178 33.2152ZM31.7621 32.7464V32.2862C31.7621 31.9482 31.8331 31.6371 31.9751 31.353C32.12 31.0689 32.3303 30.8402 32.6058 30.6669C32.8814 30.4936 33.2152 30.407 33.6072 30.407C34.0107 30.407 34.3487 30.4936 34.6214 30.6669C34.8942 30.8374 35.1001 31.0646 35.2393 31.3487C35.3814 31.6328 35.4524 31.9453 35.4524 32.2862V32.7464C35.4524 33.0845 35.3814 33.3956 35.2393 33.6797C35.0973 33.9638 34.8885 34.1925 34.6129 34.3658C34.3402 34.5391 34.005 34.6257 33.6072 34.6257C33.2095 34.6257 32.8729 34.5391 32.5973 34.3658C32.3217 34.1925 32.1129 33.9638 31.9709 33.6797C31.8317 33.3956 31.7621 33.0845 31.7621 32.7464ZM32.8743 32.2862V32.7464C32.8743 32.9709 32.9283 33.1768 33.0362 33.3643C33.1442 33.5518 33.3345 33.6456 33.6072 33.6456C33.8828 33.6456 34.0717 33.5533 34.174 33.3686C34.2791 33.1811 34.3317 32.9737 34.3317 32.7464V32.2862C34.3317 32.0589 34.282 31.8516 34.1825 31.6641C34.0831 31.4737 33.8913 31.3786 33.6072 31.3786C33.3402 31.3786 33.1513 31.4737 33.0405 31.6641C32.9297 31.8516 32.8743 32.0589 32.8743 32.2862ZM27.326 27.7521V27.2919C27.326 26.951 27.3984 26.6385 27.5433 26.3544C27.6882 26.0703 27.8984 25.843 28.174 25.6726C28.4496 25.4993 28.7834 25.4126 29.1754 25.4126C29.576 25.4126 29.9126 25.4993 30.1854 25.6726C30.4609 25.843 30.6683 26.0703 30.8075 26.3544C30.9467 26.6385 31.0163 26.951 31.0163 27.2919V27.7521C31.0163 28.093 30.9453 28.4055 30.8033 28.6896C30.6641 28.9709 30.4567 29.1967 30.1811 29.3672C29.9055 29.5376 29.5703 29.6229 29.1754 29.6229C28.7749 29.6229 28.4368 29.5376 28.1612 29.3672C27.8885 29.1967 27.6811 28.9695 27.5391 28.6854C27.397 28.4013 27.326 28.0902 27.326 27.7521ZM28.4467 27.2919V27.7521C28.4467 27.9794 28.4993 28.1868 28.6044 28.3743C28.7124 28.5589 28.9027 28.6513 29.1754 28.6513C29.4482 28.6513 29.6357 28.5589 29.7379 28.3743C29.843 28.1868 29.8956 27.9794 29.8956 27.7521V27.2919C29.8956 27.0646 29.8459 26.8572 29.7464 26.6697C29.647 26.4794 29.4567 26.3842 29.1754 26.3842C28.9055 26.3842 28.7166 26.4794 28.6087 26.6697C28.5007 26.8601 28.4467 27.0675 28.4467 27.2919ZM27.8118 34.3828L33.8118 25.6555H34.8771L28.8771 34.3828H27.8118Z" fill="#1300F2"/>
</g>
<defs>
<filter id="filter0_d_1091_10676" x="95" y="80.3828" width="43" height="27" filterUnits="userSpaceOnUse" color-interpolation-filters="sRGB">
<feFlood flood-opacity="0" result="BackgroundImageFix"/>
<feColorMatrix in="SourceAlpha" type="matrix" values="0 0 0 0 0 0 0 0 0 0 0 0 0 0 0 0 0 0 127 0" result="hardAlpha"/>
<feOffset dy="4"/>
<feGaussianBlur stdDeviation="2"/>
<feComposite in2="hardAlpha" operator="out"/>
<feColorMatrix type="matrix" values="0 0 0 0 0 0 0 0 0 0 0 0 0 0 0 0 0 0 0.25 0"/>
<feBlend mode="normal" in2="BackgroundImageFix" result="effect1_dropShadow_1091_10676"/>
<feBlend mode="normal" in="SourceGraphic" in2="effect1_dropShadow_1091_10676" result="shape"/>
</filter>
<filter id="filter1_d_1091_10676" x="0" y="20.3828" width="43" height="27" filterUnits="userSpaceOnUse" color-interpolation-filters="sRGB">
<feFlood flood-opacity="0" result="BackgroundImageFix"/>
<feColorMatrix in="SourceAlpha" type="matrix" values="0 0 0 0 0 0 0 0 0 0 0 0 0 0 0 0 0 0 127 0" result="hardAlpha"/>
<feOffset dy="4"/>
<feGaussianBlur stdDeviation="2"/>
<feComposite in2="hardAlpha" operator="out"/>
<feColorMatrix type="matrix" values="0 0 0 0 0 0 0 0 0 0 0 0 0 0 0 0 0 0 0.25 0"/>
<feBlend mode="normal" in2="BackgroundImageFix" result="effect1_dropShadow_1091_10676"/>
<feBlend mode="normal" in="SourceGraphic" in2="effect1_dropShadow_1091_10676" result="shape"/>
</filter>
<clipPath id="clip0_1091_10676">
<rect width="114.661" height="114.661" fill="white" transform="translate(15 0.552185)"/>
</clipPath>
</defs>
</svg>
