<svg width="25" height="25" viewBox="0 0 25 25" fill="none" xmlns="http://www.w3.org/2000/svg">
<path d="M13.03 20.506H6.71C3.55 20.506 2.5 18.406 2.5 16.296V7.87602C2.5 4.71602 3.55 3.66602 6.71 3.66602H13.03C16.19 3.66602 17.24 4.71602 17.24 7.87602V16.296C17.24 19.456 16.18 20.506 13.03 20.506Z" stroke="#013467" stroke-width="1.5" stroke-linecap="round" stroke-linejoin="round"/>
<path d="M20.0202 17.1861L17.2402 15.2361V8.92607L20.0202 6.97607C21.3802 6.02607 22.5002 6.60607 22.5002 8.27607V15.8961C22.5002 17.5661 21.3802 18.1461 20.0202 17.1861Z" stroke="#013467" stroke-width="1.5" stroke-linecap="round" stroke-linejoin="round"/>
<path d="M12 11.0859C12.8284 11.0859 13.5 10.4144 13.5 9.58594C13.5 8.75751 12.8284 8.08594 12 8.08594C11.1716 8.08594 10.5 8.75751 10.5 9.58594C10.5 10.4144 11.1716 11.0859 12 11.0859Z" stroke="#013467" stroke-width="1.5" stroke-linecap="round" stroke-linejoin="round"/>
</svg>
